# xmcd CD database file
#
# Track frame offsets:
#	187
#	22252
#	42192
#	61977
#	79495
#	86270
#	106940
#	121727
#	147827
#	169010
#
# Disc length: 2341 seconds
#
# Revision: 0
# Processed by: cddbd v1.5.1PL0 Copyright (c) Steve Scherf et al.
# Submitted via: CDex 1.51
#
DISCID=7c09230a
DTITLE=井上美樹 - DOOR
DYEAR=1991
DGENRE=JPop
TTITLE0=DOOR −扉−
TTITLE1=VOICE
TTITLE2=或る一日
TTITLE3=〜 Float 〜
TTITLE4=Table Dessin
TTITLE5=手のひらの永遠
TTITLE6=空の嘘
TTITLE7=−Long Way Home−
TTITLE8=Birth
TTITLE9=”anybody home?!”
EXTD=YEAR: 1991
EXTT0=
EXTT1=
EXTT2=
EXTT3=
EXTT4=
EXTT5=
EXTT6=
EXTT7=
EXTT8=
EXTT9=
PLAYORDER=
